<svg id="Layer_1" data-name="Layer 1" xmlns="http://www.w3.org/2000/svg" viewBox="0 0 22 22"><defs><style>.cls-1{fill:#fff;fill-rule:evenodd;}</style></defs><path class="cls-1" d="M4.1,8.74A.88.88,0,1,0,5,9.62.87.87,0,0,0,4.1,8.74Z"/><path class="cls-1" d="M7.55,8.74a.88.88,0,1,0,0,1.76.88.88,0,1,0,0-1.76Z"/><path class="cls-1" d="M11,8.74a.88.88,0,1,0,.88.88A.88.88,0,0,0,11,8.74Z"/><path class="cls-1" d="M14.45,8.74a.88.88,0,1,0,.88.88A.88.88,0,0,0,14.45,8.74Z"/><path class="cls-1" d="M7.55,6a.88.88,0,0,0,0,1.76A.88.88,0,0,0,7.55,6Z"/><path class="cls-1" d="M11,6a.88.88,0,1,0,.88.88A.88.88,0,0,0,11,6Z"/><path class="cls-1" d="M11,3.22a.88.88,0,1,0,.88.88A.88.88,0,0,0,11,3.22Z"/><path class="cls-1" d="M7.55,11.5a.88.88,0,1,0,.88.88A.88.88,0,0,0,7.55,11.5Z"/><path class="cls-1" d="M11,11.5a.88.88,0,1,0,.88.88A.89.89,0,0,0,11,11.5Z"/><path class="cls-1" d="M14.45,11.5a.88.88,0,0,0,0,1.76.88.88,0,1,0,0-1.76Z"/><path class="cls-1" d="M17.9,11.5a.88.88,0,1,0,.88.88A.88.88,0,0,0,17.9,11.5Z"/><path class="cls-1" d="M7.55,14.26a.88.88,0,1,0,.88.88A.88.88,0,0,0,7.55,14.26Z"/><path class="cls-1" d="M11,14.26a.88.88,0,1,0,.88.88A.89.89,0,0,0,11,14.26Z"/><path class="cls-1" d="M14.45,14.26a.88.88,0,0,0,0,1.76.88.88,0,1,0,0-1.76Z"/><path class="cls-1" d="M11,17a.88.88,0,1,0,.88.87A.88.88,0,0,0,11,17Z"/></svg>